<?xml version="1.0" encoding="UTF-8"?>
<svg xmlns="http://www.w3.org/2000/svg" width="400" height="429" viewBox="-258 -405 1245 1335">
<g stroke="#808" fill="#808" stroke-width="2">
	<path stroke-dasharray="29,10,5,10" d="M300,-69V69 M-200,0 h1000"/><!-- e-a,0,2a -->
	<path stroke-dasharray="6,6" fill="#ddd" d="   M0,0V320 A500,400 0 0,1 -170,136z   L600,320 A500,400 0 0,0  679,261z"/>
	<ellipse stroke-width="3" fill="none" rx="500" ry="400" cx="300"/><!-- rx=a,ry=b,cx=e, i.e., F1(0,0) -->
	<circle r="11" cx="600"/><!-- F2(2e,0) -->
	<circle r="14" cy="320"/>
	<path fill="none" d="M200,415 C262,423 302,424 358,419 L315,433 M358,419 L313,411"/>
</g>
<g stroke="#088" fill="#088" stroke-width="2" transform="rotate(42)">
	<path stroke-dasharray="29,10,5,10" d="M490,-69V69 M-210,0 h1400"/>
	<ellipse stroke-width="3" fill="none" rx="700" ry="500" cx="490"/>
	<circle r="11" cx="980"/>
	<circle r="14" cx="490" cy="500"/>
	<path fill="none" d="M390,465 C452,473 492,474 548,469 L505,483 M548,469 L503,461"/>
</g>
<circle r="20" fill="#444"/>
<g font-family="Times" fill="#808" font-size="80">
	<switch><text x="585" y="-30" id="trsvg18"><tspan id="trsvg1">F</tspan><tspan dy="12" font-size="60" id="trsvg2">2</tspan></text></switch>
	<switch><text x="500" y="45" id="trsvg19"><tspan id="trsvg3">a</tspan><tspan dy="12" font-size="60" id="trsvg4">1</tspan></text></switch>
	<switch><text x="-99" y="200" id="trsvg20"><tspan id="trsvg5">A</tspan><tspan dy="12" font-size="60" id="trsvg6">1</tspan></text></switch>
	<switch><text x="510" y="260" id="trsvg21"><tspan id="trsvg7">A</tspan><tspan dy="12" font-size="60" id="trsvg8">2</tspan></text></switch>
	<switch><text x="-40" y="435" id="trsvg22-de" systemLanguage="de"><tspan id="trsvg9-de">Planet 1</tspan></text><text x="-40" y="435" id="trsvg22-ca" systemLanguage="ca"><tspan id="trsvg9-ca">planeta 1</tspan></text><text x="-40" y="435" id="trsvg22"><tspan id="trsvg9">planet1</tspan></text></switch>
	<switch><text x="-10" y="-30" fill="#444" id="trsvg23-de" systemLanguage="de"><tspan id="trsvg10-de">F</tspan><tspan dy="12" font-size="60" id="trsvg11-de">1 </tspan><tspan dy="-9" id="trsvg12-de">(Sonne)</tspan></text><text x="-10" y="-30" fill="#444" id="trsvg23-ca" systemLanguage="ca"><tspan id="trsvg10-ca">F</tspan><tspan dy="12" font-size="60" id="trsvg11-ca">1 </tspan><tspan dy="-9" id="trsvg12-ca">(sol)</tspan></text><text x="-10" y="-30" fill="#444" id="trsvg23"><tspan id="trsvg10">F</tspan><tspan dy="12" font-size="60" id="trsvg11">1 </tspan><tspan dy="-9" id="trsvg12">(sun)</tspan></text></switch>
	<switch><text x="560" y="600" fill="#088" id="trsvg24"><tspan id="trsvg13">a</tspan><tspan dy="12" font-size="60" id="trsvg14">2</tspan></text></switch>
	<switch><text x="710" y="630" fill="#088" id="trsvg25"><tspan id="trsvg15">F</tspan><tspan dy="12" font-size="60" id="trsvg16">3</tspan></text></switch>
	<switch><text x="-40" y="580" fill="#088" id="trsvg26-de" systemLanguage="de"><tspan id="trsvg17-de">Planet 2</tspan></text><text x="-40" y="580" fill="#088" id="trsvg26-ca" systemLanguage="ca"><tspan id="trsvg17-ca">planeta 2</tspan></text><text x="-40" y="580" fill="#088" id="trsvg26"><tspan id="trsvg17">planet2</tspan></text></switch>
</g>
</svg>
